# xmcd CD database file generated by Grip 2.96
# 
# Track frame offsets:
#       150
#       23265
#       36692
#       62392
#       83760
#       97057
#       113407
#       129097
#       145317
#       156897
#       172064
#       190374
#       202442
#       220647
#       237094
#       253157
#       269699
#       284582
#       299414
#       307967
# 
# Disc length: 4307 seconds
# 
# Revision: 0
# Processed by: cddbd v1.4PL0 Copyright (c) Steve Scherf et al.
# Submitted via: Grip 2.96
# 
DISCID=2e10d114
DTITLE=Vladimir Misik - Sin slavy 2
DYEAR=1900
DGENRE=
TTITLE0=Mala pani
TTITLE1=Tma steka do kaluzi
TTITLE2=Doteky
TTITLE3=Kralovsky vecer
TTITLE4=Spejchar blues
TTITLE5=20 deka duse
TTITLE6=Zivotni rezim
TTITLE7=Co Ti dam
TTITLE8=Smajdak a plouzaky
TTITLE9=Koukni na tu fotku
TTITLE10=Osameli lide
TTITLE11=Nekdu se jdu opit
TTITLE12=Gambrinus
TTITLE13=Chvile po setmeni
TTITLE14=V sedmem nebi
TTITLE15=Pod stvanickym mostem
TTITLE16=Co jsem si vzal
TTITLE17=To byl zas den
TTITLE18=Poklad na ostrove
TTITLE19=Noc
EXTD=
EXTT0=
EXTT1=
EXTT2=
EXTT3=
EXTT4=
EXTT5=
EXTT6=
EXTT7=
EXTT8=
EXTT9=
EXTT10=
EXTT11=
EXTT12=
EXTT13=
EXTT14=
EXTT15=
EXTT16=
EXTT17=
EXTT18=
EXTT19=
PLAYORDER=
